<?xml version="1.0" encoding="UTF-8" standalone="no"?>
<!-- Created with Inkscape (http://www.inkscape.org/) -->

<svg
   xmlns:dc="http://purl.org/dc/elements/1.1/"
   xmlns:cc="http://creativecommons.org/ns#"
   xmlns:rdf="http://www.w3.org/1999/02/22-rdf-syntax-ns#"
   xmlns:svg="http://www.w3.org/2000/svg"
   xmlns="http://www.w3.org/2000/svg"
   xmlns:sodipodi="http://sodipodi.sourceforge.net/DTD/sodipodi-0.dtd"
   xmlns:inkscape="http://www.inkscape.org/namespaces/inkscape"
   width="25mm"
   height="25mm"
   viewBox="0 0 25 25"
   version="1.1"
   id="svg4600"
   inkscape:version="0.92.1 r15371"
   sodipodi:docname="mainwindow.svg">
  <defs
     id="defs4594" />
  <sodipodi:namedview
     id="base"
     pagecolor="#ffffff"
     bordercolor="#666666"
     borderopacity="1.0"
     inkscape:pageopacity="0.0"
     inkscape:pageshadow="2"
     inkscape:zoom="7.9195959"
     inkscape:cx="67.99828"
     inkscape:cy="46.717004"
     inkscape:document-units="mm"
     inkscape:current-layer="layer1"
     showgrid="false"
     inkscape:window-width="2560"
     inkscape:window-height="1380"
     inkscape:window-x="0"
     inkscape:window-y="31"
     inkscape:window-maximized="1" />
  <metadata
     id="metadata4597">
    <rdf:RDF>
      <cc:Work
         rdf:about="">
        <dc:format>image/svg+xml</dc:format>
        <dc:type
           rdf:resource="http://purl.org/dc/dcmitype/StillImage" />
        <dc:title></dc:title>
      </cc:Work>
    </rdf:RDF>
  </metadata>
  <g
     inkscape:label="Layer 1"
     inkscape:groupmode="layer"
     id="layer1"
     transform="translate(0,-272)">
    <g
       aria-label="GCC"
       transform="matrix(0.24749935,0,0,0.27597118,2.4732916,275.38288)"
       style="font-style:normal;font-weight:normal;font-size:42.66666794px;line-height:1.25;font-family:sans-serif;letter-spacing:0px;word-spacing:0px;fill:#000000;fill-opacity:1;stroke:none"
       id="flowRoot6929">
      <path
         d="m 25.016928,32.341798 v -8.354167 h -6.875 v -3.458333 h 11.041667 v 13.354167 q -2.4375,1.729166 -5.375001,2.625 -2.9375,0.875 -6.270833,0.875 -7.291667,0 -11.4166671,-4.25 -4.1041667,-4.270834 -4.1041667,-11.875001 0,-7.625 4.1041667,-11.8750001 4.1250001,-4.2708335 11.4166671,-4.2708335 3.041667,0 5.770833,0.75 2.750001,0.75 5.062501,2.2083334 v 4.4791672 q -2.333334,-1.979167 -4.958334,-2.9791671 -2.625,-1.0000001 -5.520833,-1.0000001 -5.708334,0 -8.583334,3.1875002 -2.8541667,3.1875 -2.8541667,9.5 0,6.291667 2.8541667,9.479167 2.875,3.1875 8.583334,3.1875 2.229166,0 3.979166,-0.375 1.75,-0.395833 3.145834,-1.208333 z"
         id="path6941"
         inkscape:connector-curvature="0" />
      <path
         d="m 60.183597,8.0709638 v 4.4375002 q -2.125,-1.979167 -4.541667,-2.9583335 -2.395833,-0.9791667 -5.104167,-0.9791667 -5.333333,0 -8.166666,3.2708332 -2.833334,3.25 -2.833334,9.416667 0,6.145834 2.833334,9.416667 2.833333,3.25 8.166666,3.25 2.708334,0 5.104167,-0.979166 2.416667,-0.979167 4.541667,-2.958334 v 4.395834 q -2.208333,1.5 -4.6875,2.25 -2.458333,0.75 -5.208334,0.75 -7.0625,0 -11.125,-4.3125 -4.0625,-4.333334 -4.0625,-11.812501 0,-7.5 4.0625,-11.8125001 4.0625,-4.3333335 11.125,-4.3333335 2.791667,0 5.250001,0.75 2.479166,0.7291667 4.645833,2.2083334 z"
         id="path6943"
         inkscape:connector-curvature="0" />
      <path
         d="m 90.016933,8.0709638 v 4.4375002 q -2.125,-1.979167 -4.541667,-2.9583335 -2.395833,-0.9791667 -5.104167,-0.9791667 -5.333333,0 -8.166667,3.2708332 -2.833333,3.25 -2.833333,9.416667 0,6.145834 2.833333,9.416667 2.833334,3.25 8.166667,3.25 2.708334,0 5.104167,-0.979166 2.416667,-0.979167 4.541667,-2.958334 v 4.395834 q -2.208333,1.5 -4.6875,2.25 -2.458334,0.75 -5.208334,0.75 -7.0625,0 -11.125,-4.3125 -4.0625,-4.333334 -4.0625,-11.812501 0,-7.5 4.0625,-11.8125001 4.0625,-4.3333335 11.125,-4.3333335 2.791667,0 5.250001,0.75 2.479166,0.7291667 4.645833,2.2083334 z"
         id="path6945"
         inkscape:connector-curvature="0" />
    </g>
    <text
       xml:space="preserve"
       style="font-style:normal;font-weight:normal;font-size:8.5011816px;line-height:1.25;font-family:sans-serif;letter-spacing:0px;word-spacing:0px;fill:#000000;fill-opacity:1;stroke:none;stroke-width:0.28981298"
       x="2.2636952"
       y="312.01068"
       id="text7099"
       transform="scale(1.0650486,0.93892429)"><tspan
         sodipodi:role="line"
         id="tspan7097"
         x="2.2636952"
         y="312.01068"
         style="stroke-width:0.28981298">2019</tspan></text>
  </g>
</svg>
