<?xml version="1.0" encoding="UTF-8" standalone="no"?>
<!--part of the matt icon theme by sixsixfive released under CC0 (https://creativecommons.org/publicdomain/zero/1.0/) on openclipart-->
<svg xmlns="http://www.w3.org/2000/svg" xmlns:xlink="http://www.w3.org/1999/xlink" viewBox="0 0 128 128">
 <defs id="0">
  <linearGradient id="I">
   <stop id="j" stop-color="#eee"/>
   <stop id="k" offset="1" stop-color="#eee" stop-opacity="0"/>
  </linearGradient>
  <linearGradient id="J">
   <stop id="l"/>
   <stop id="m" offset="0.902" stop-opacity="0.731"/>
   <stop id="n" offset="1" stop-opacity="0"/>
  </linearGradient>
  <linearGradient id="K">
   <stop id="o" stop-color="#323232"/>
   <stop id="p" offset="1" stop-color="#484848"/>
  </linearGradient>
  <linearGradient id="L">
   <stop id="q" stop-color="#bbb"/>
   <stop id="r" offset="1" stop-color="#dcdcdc"/>
  </linearGradient>
  <linearGradient id="M">
   <stop id="s" stop-color="#242424"/>
   <stop id="t" offset="1" stop-color="#535353"/>
  </linearGradient>
  <linearGradient id="N">
   <stop id="u" stop-color="#a2a2a2"/>
   <stop id="v" offset="1" stop-color="#f2f2f2"/>
  </linearGradient>
  <filter color-interpolation-filters="sRGB" id="O">
   <feGaussianBlur stdDeviation="2.58594" id="w"/>
  </filter>
  <filter x="-0.147" y="-0.145" width="1.294" height="1.29" color-interpolation-filters="sRGB" id="P">
   <feGaussianBlur stdDeviation="1.81881" id="x"/>
  </filter>
  <linearGradient id="Q">
   <stop id="y"/>
   <stop id="z" offset="1" stop-color="#ddd" stop-opacity="0"/>
  </linearGradient>
  <linearGradient id="R">
   <stop id="10"/>
   <stop id="11" offset="1" stop-opacity="0.536"/>
  </linearGradient>
  <linearGradient id="S">
   <stop id="12" stop-color="#eee"/>
   <stop id="13" offset="1" stop-color="#d2d2d2"/>
  </linearGradient>
  <filter color-interpolation-filters="sRGB" id="T">
   <feGaussianBlur id="14" stdDeviation="0.52859"/>
  </filter>
  <filter x="-0.031" y="-0.603" width="1.062" height="2.207" color-interpolation-filters="sRGB" id="U">
   <feGaussianBlur id="15" stdDeviation="1.54803"/>
  </filter>
  <radialGradient cx="63.45" cy="115" r="60.03" id="V" xlink:href="#J" gradientUnits="userSpaceOnUse" gradientTransform="matrix(1,0,0,0.05128205,0,109.10408)"/>
  <radialGradient cx="89.51" cy="22.254" r="18.279" id="W" xlink:href="#R" gradientUnits="userSpaceOnUse" gradientTransform="matrix(1,0,0,0.9746789,0,0.4391072)"/>
  <linearGradient y1="111.88" x2="0" y2="117" id="X" xlink:href="#N" gradientUnits="userSpaceOnUse"/>
  <linearGradient y1="97.56" x2="0" y2="63.31" id="Y" xlink:href="#K" gradientUnits="userSpaceOnUse" gradientTransform="translate(-1.1043143,-8.4026965)"/>
  <linearGradient y1="109.8" x2="0" y2="120.24" id="Z" xlink:href="#M" gradientUnits="userSpaceOnUse" gradientTransform="matrix(1,0,0,0.9247892,-1.1019683,-0.1445873)"/>
  <linearGradient y1="104.84" x2="0" y2="63.31" id="a" xlink:href="#L" gradientUnits="userSpaceOnUse" gradientTransform="translate(-1.0261893,-8.4026965)"/>
  <linearGradient x1="98.33" y1="14.793" x2="86.82" y2="25.1" id="b" xlink:href="#Q" gradientUnits="userSpaceOnUse" gradientTransform="matrix(0.804588,0,0,0.804588,12.79126,6.8012235)"/>
  <radialGradient cx="81.79" cy="100.32" r="44.42" id="c" xlink:href="#S" gradientUnits="userSpaceOnUse" gradientTransform="matrix(1.6660024,-1.3285984,1.4785947,1.8540908,-219.88922,26.593065)"/>
  <radialGradient cx="60.27" cy="-4.631" r="57.19" id="d" xlink:href="#I" gradientUnits="userSpaceOnUse" gradientTransform="matrix(3.0214867,-0.01591543,0.00232685,0.4417449,-123.69224,51.101831)"/>
  <radialGradient cx="60.692" cy="48.661" r="39.28" id="e" xlink:href="#I" gradientUnits="userSpaceOnUse" gradientTransform="matrix(1.5093033,0.00327291,-5.3253408e-4,0.2455788,-30.564673,9.0631782)"/>
 </defs>
 <path d="m 123.48478,115.0016 a 60.032074,3.0785677 0 1 1 -120.0641524,0 60.032074,3.0785677 0 1 1 120.0641524,0 z" transform="matrix(1,0,0,1.8333334,0.5472984,-99.966908)" id="1" opacity="0.729" fill="url(#V)" filter="url(#U)"/>
 <path d="m 24.692561,23.472304 0,3.4375 1.03125,0 0,1.1875 -1.03125,0 0,59.812499 78.499999,0 0,-53.218749 0,-6.5 0,-0.09375 -0.875,0 0,-1.1875 0.875,0 0,-0.03125 0,-1.34375 0,-2.0625 -78.499999,0 0,0 z" id="2" fill="#323232"/>
 <path d="m 20.09375,4.1185004 0,117.9999996 88.84375,0 0,-86.15625 -0.59375,-0.625 c 0.21045,0.144391 0.41688,0.302162 0.625,0.4375 L 78.09375,4.1497504 c 0.05654,0.079597 0.09993,0.1703021 0.15625,0.25 l -0.25,-0.28125 -57.90625,0 0,0 z" transform="matrix(0.804588,0,0,0.8080095,12.79126,6.3621665)" id="3" opacity="0.809" filter="url(#O)"/>
 <path d="m 25.65625,24.4375 0,1.5 0.0625,0 a 0.97139767,0.97139767 0 0 1 0.96875,0.96875 l 0,1.1875 a 0.97139767,0.97139767 0 0 1 -0.96875,0.96875 l -0.0625,0 0,57.875 76.5625,0 0,-52.25 0,-5.625 a 0.97139767,0.97139767 0 0 1 -0.875,-0.96875 l 0,-1.1875 a 0.97139767,0.97139767 0 0 1 0.875,-0.96875 l 0,-0.40625 0,-1.09375 -76.5625,0 z" id="4" fill="none" stroke="url(#e)" stroke-width="2"/>
 <path d="m 28.958451,8.9886965 0,94.9413835 71.482619,0 0,-69.320283 -24.891944,-25.6211005 -46.590675,0 0,0 z" id="5" fill="url(#c)"/>
 <path d="m 81.698039,28.309502 0.135161,-8.351 C 81.901124,13.359407 80.956142,8.4107397 77.785779,3.9471419 L 80.362343,3.9159389 107.86271,29.53084 c -4.06802,-2.645393 -9.621189,-0.791242 -16.861906,-1.025606 l -9.302765,-0.195732 0,0 z" transform="matrix(0.8452989,0,0,0.9252928,8.3147803,6.5862245)" id="6" opacity="0.505" fill="url(#W)" filter="url(#P)"/>
 <path d="m 80.309387,28.346627 0.108749,-6.719115 C 80.472786,16.31796 78.178966,12.612795 75.628129,9.0214375 L 100.47479,34.468269 C 97.201712,32.339818 93.620076,28.692677 87.79428,28.50411 l -7.484893,-0.157483 0,0 z" id="7" fill="#eee"/>
 <path d="m 80.309387,28.346627 0.108749,-6.719115 C 80.472786,16.31796 78.178966,12.612795 75.628129,9.0214375 L 100.47479,34.468269 C 97.201712,32.339818 93.620076,28.692677 87.79428,28.50411 l -7.484893,-0.157483 0,0 z" id="8" fill="url(#b)"/>
 <path d="m 14.598811,54.909804 c -4.322862,0 -7.8125003,3.489637 -7.8125003,7.812499 l 0,33.71875 114.3124993,0 0,-33.71875 c 0,-4.322862 -3.48964,-7.812499 -7.8125,-7.812499 l -98.687499,0 z" id="9" fill="url(#a)"/>
 <path d="m 6.7863107,96.441053 0,15.624997 114.3124993,0 0,-15.624997 -114.3124993,0 0,0 z" id="A" fill="#555"/>
 <path d="m 6.7863107,96.441053 0,2.24211 114.3124993,0 0,-2.24211 -114.3124993,0 0,0 z" id="B" fill="#323232"/>
 <rect width="86.68" height="10.294" x="20.604" y="103.49" id="C" fill="#bbb" rx="1.7"/>
 <rect width="75.79" height="9.658" x="26.05" y="101.4" id="D" fill="url(#Z)" rx="2.682"/>
 <path d="m 30,63.3125 0,34.25 71.28125,0 c 0.0657,0 0.12277,-0.02736 0.1875,-0.03125 l 0,-34.21875 -71.46875,0 0,0 z" transform="matrix(1,0,0,0.901791,-1.0261893,-2.3094294)" id="E" filter="url(#T)"/>
 <path d="m 24.645686,54.909804 c -0.0512,0.225823 -0.09375,0.445745 -0.09375,0.6875 l 0,30.4375 c 0,1.741072 1.415177,3.124999 3.15625,3.124999 l 72.468754,0 c 1.74106,0 3.15625,-1.383927 3.15625,-3.124999 l 0,-30.4375 c 0,-0.241755 -0.0426,-0.461677 -0.0937,-0.6875 l -78.593754,0 -5e-5,0 z" id="F" fill="url(#Y)"/>
 <g transform="translate(-2.4164377,-26.809817)" id="G">
  <path d="m 17.75,111.875 c -1.405166,0 -2.5625,1.15733 -2.5625,2.5625 0,1.40517 1.157334,2.5625 2.5625,2.5625 1.405166,0 2.5625,-1.15733 2.5625,-2.5625 0,-1.40517 -1.157334,-2.5625 -2.5625,-2.5625 z" id="f" fill="url(#X)"/>
  <rect width="4" height="4" x="15.761" y="112.43" id="g" fill="#00a7b3" rx="2"/>
  <rect width="2.342" height="2.342" x="16.59" y="113.26" id="h" fill="#00c4cc" rx="1.171"/>
  <path d="m 17.75,113.8125 c -0.34226,0 -0.59375,0.26498 -0.59375,0.625 0,0.36002 0.233725,0.59375 0.59375,0.59375 0.360025,0 0.625,-0.25149 0.625,-0.59375 0,-0.34226 -0.28274,-0.625 -0.625,-0.625 z" id="i" fill="#a8dde0"/>
 </g>
 <path d="M 14.59375,55.875 C 10.800509,55.874999 7.75,58.925508 7.75,62.71875 l 0,32.75 112.375,0 0,-32.75 c 0,-3.793239 -3.05051,-6.84375 -6.84375,-6.84375 l -98.6875,0 z" id="H" fill="none" stroke="url(#d)" stroke-width="2"/>
</svg>
