<?xml version="1.0" encoding="UTF-8" standalone="no"?>
<svg
   xmlns:dc="http://purl.org/dc/elements/1.1/"
   xmlns:cc="http://creativecommons.org/ns#"
   xmlns:rdf="http://www.w3.org/1999/02/22-rdf-syntax-ns#"
   xmlns:svg="http://www.w3.org/2000/svg"
   xmlns="http://www.w3.org/2000/svg"
   xmlns:xlink="http://www.w3.org/1999/xlink"
   width="68.26667"
   height="68.26667"
   id="svg2766"
   version="1.1">
  <defs
     id="defs2768">
    <linearGradient
       id="linearGradient4087">
      <stop
         style="stop-color:#204a87;stop-opacity:1"
         offset="0"
         id="stop4089" />
      <stop
         style="stop-color:#729fcf;stop-opacity:1"
         offset="1"
         id="stop4091" />
    </linearGradient>
    <linearGradient
       id="linearGradient3787">
      <stop
         id="stop3789"
         offset="0"
         style="stop-color:#0619c0;stop-opacity:1;" />
      <stop
         id="stop3791"
         offset="1"
         style="stop-color:#379cfb;stop-opacity:1;" />
    </linearGradient>
    <linearGradient
       id="linearGradient3864">
      <stop
         id="stop3866"
         offset="0"
         style="stop-color:#0619c0;stop-opacity:1;" />
      <stop
         id="stop3868"
         offset="1"
         style="stop-color:#379cfb;stop-opacity:1;" />
    </linearGradient>
    <linearGradient
       xlink:href="#linearGradient3787"
       id="linearGradient3524-5"
       gradientUnits="userSpaceOnUse"
       x1="581.26331"
       y1="126.79625"
       x2="609.54919"
       y2="100.10708"
       gradientTransform="matrix(1.0614931,0,0,1,-617.05296,-100.11156)" />
    <linearGradient
       xlink:href="#linearGradient4004-9"
       id="linearGradient4010-0"
       x1="18.199173"
       y1="47.870518"
       x2="14.614764"
       y2="23.571756"
       gradientUnits="userSpaceOnUse" />
    <linearGradient
       id="linearGradient4004-9">
      <stop
         style="stop-color:#204a87;stop-opacity:1"
         offset="0"
         id="stop4006-4" />
      <stop
         style="stop-color:#729fcf;stop-opacity:1"
         offset="1"
         id="stop4008-8" />
    </linearGradient>
    <linearGradient
       xlink:href="#linearGradient4087"
       id="linearGradient4093"
       x1="37"
       y1="53"
       x2="27"
       y2="8"
       gradientUnits="userSpaceOnUse" />
    <linearGradient
       xlink:href="#linearGradient3856"
       id="linearGradient3862"
       x1="613.25824"
       y1="135.1946"
       x2="595.35895"
       y2="68.194603"
       gradientUnits="userSpaceOnUse" />
    <linearGradient
       id="linearGradient3856">
      <stop
         style="stop-color:#3465a4;stop-opacity:1"
         offset="0"
         id="stop3858" />
      <stop
         style="stop-color:#729fcf;stop-opacity:1"
         offset="1"
         id="stop3860" />
    </linearGradient>
    <linearGradient
       gradientTransform="matrix(1.0614931,0,0,1.3225807,-638.96941,-99.321897)"
       y2="84.194603"
       x2="628.33136"
       y1="120.1946"
       x1="636.81"
       gradientUnits="userSpaceOnUse"
       id="linearGradient3040-5"
       xlink:href="#linearGradient3856-1" />
    <linearGradient
       id="linearGradient3856-1">
      <stop
         style="stop-color:#3465a4;stop-opacity:1"
         offset="0"
         id="stop3858-7" />
      <stop
         style="stop-color:#729fcf;stop-opacity:1"
         offset="1"
         id="stop3860-1" />
    </linearGradient>
    <linearGradient
       gradientTransform="matrix(1.0614931,0,0,1.3225807,-638.96941,-99.321897)"
       y2="84.194603"
       x2="628.33136"
       y1="120.1946"
       x1="636.81"
       gradientUnits="userSpaceOnUse"
       id="linearGradient3040-52"
       xlink:href="#linearGradient3856-7" />
    <linearGradient
       id="linearGradient3856-7">
      <stop
         style="stop-color:#3465a4;stop-opacity:1"
         offset="0"
         id="stop3858-6" />
      <stop
         style="stop-color:#729fcf;stop-opacity:1"
         offset="1"
         id="stop3860-14" />
    </linearGradient>
    <linearGradient
       gradientTransform="matrix(1.0614931,0,0,1.3225807,-638.96941,-99.321897)"
       y2="84.194603"
       x2="628.33136"
       y1="120.1946"
       x1="636.81"
       gradientUnits="userSpaceOnUse"
       id="linearGradient3040-2"
       xlink:href="#linearGradient3856-2" />
    <linearGradient
       id="linearGradient3856-2">
      <stop
         style="stop-color:#3465a4;stop-opacity:1"
         offset="0"
         id="stop3858-1" />
      <stop
         style="stop-color:#729fcf;stop-opacity:1"
         offset="1"
         id="stop3860-6" />
    </linearGradient>
    <linearGradient
       gradientTransform="matrix(1.0614931,0,0,1.3225807,-638.96941,-99.321897)"
       y2="84.194603"
       x2="628.33136"
       y1="120.1946"
       x1="636.81"
       gradientUnits="userSpaceOnUse"
       id="linearGradient3040-7"
       xlink:href="#linearGradient3856-6" />
    <linearGradient
       id="linearGradient3856-6">
      <stop
         style="stop-color:#3465a4;stop-opacity:1"
         offset="0"
         id="stop3858-18" />
      <stop
         style="stop-color:#729fcf;stop-opacity:1"
         offset="1"
         id="stop3860-9" />
    </linearGradient>
    <clipPath
       clipPathUnits="userSpaceOnUse"
       id="clipPath4658">
      <path
         style="opacity:0.81199999;fill:#000000;fill-opacity:1;stroke:#ff1300;stroke-width:4.13313246;stroke-linecap:round;stroke-linejoin:miter;stroke-miterlimit:4;stroke-dasharray:none;stroke-opacity:1;paint-order:markers stroke fill"
         d="m 684.25533,147.75022 a 535.95636,512.77136 0 0 0 -348.4141,112.00586 535.95636,512.77136 0 0 0 -84.4805,720.28125 535.95636,512.77136 0 0 0 752.76377,81.55277 535.95636,512.77136 0 0 0 85.9981,-720.11723 l -1.3477,-1.61718 A 535.95636,512.77136 0 0 0 684.25533,147.75022 Z m -5.2891,395.87109 a 134.19888,126.37267 0 0 1 101.2871,47.34375 l 0.3379,0.39844 a 134.19888,126.37267 0 0 1 -21.5332,177.47266 134.19888,126.37267 0 0 1 -188.4863,-20.09766 134.19888,126.37267 0 0 1 21.1543,-177.51367 134.19888,126.37267 0 0 1 87.2402,-27.60352 z"
         id="path4660" />
    </clipPath>
  </defs>
  <g
     id="layer1">
    <rect
       style="opacity:1;fill:#c9c9c9;fill-opacity:1;stroke:none;stroke-width:4.23685026;stroke-linecap:round;stroke-linejoin:miter;stroke-miterlimit:4;stroke-dasharray:none;stroke-opacity:1;paint-order:markers stroke fill"
       id="rect4541"
       width="72.503746"
       height="72.503746"
       x="-1.7091511"
       y="-0.9087404" />
    <g
       aria-label="cad"
       transform="matrix(1.4081859,0,0,1.657768,-0.7932692,7.8324174)"
       style="font-style:normal;font-weight:normal;font-size:29.33333397px;line-height:1.25;font-family:sans-serif;letter-spacing:0px;word-spacing:0px;fill:#000000;fill-opacity:1;stroke:none"
       id="flowRoot4522">
      <g
         id="flowRoot4526"
         style="font-style:normal;font-weight:normal;font-size:29.33333397px;line-height:1.25;font-family:sans-serif;letter-spacing:0px;word-spacing:0px;fill:#000000;fill-opacity:1;stroke:none"
         transform="matrix(0.93394963,0,0,0.95483006,0.77410089,12.32998)"
         aria-label="cad">
        <path
           id="path4624"
           style=""
           d="M 13.695313,-1.1816404 V 1.2819013 Q 12.578125,0.66601589 11.446615,0.36523464 10.329427,0.05013046 9.183594,0.05013046 q -2.5638022,0 -3.981771,1.63281254 -1.4179687,1.6184896 -1.4179687,4.5546876 0,2.936198 1.4179687,4.5690104 1.4179688,1.61849 3.981771,1.61849 1.145833,0 2.263021,-0.300782 1.13151,-0.315104 2.248698,-0.930989 v 2.434896 q -1.102865,0.515625 -2.291667,0.773437 -1.174479,0.257813 -2.5065104,0.257813 -3.623698,0 -5.7578126,-2.277344 -2.1341146,-2.277344 -2.1341146,-6.1445314 0,-3.9244793 2.1484375,-6.17317722 2.1627605,-2.24869798 5.9153647,-2.24869798 1.2174484,0 2.3776044,0.2578125 1.160156,0.2434896 2.248698,0.7447917 z" />
        <path
           id="path4626"
           style=""
           d="m 25.597656,6.1803389 q -3.19401,0 -4.425781,0.7304688 -1.231771,0.7304688 -1.231771,2.4921875 0,1.4036458 0.916667,2.2343748 0.93099,0.816407 2.520833,0.816407 2.191407,0 3.509115,-1.546875 Q 28.21875,9.3457036 28.21875,6.7675785 V 6.1803389 Z M 30.854167,5.0917972 V 14.244141 H 28.21875 v -2.434896 q -0.902343,1.460938 -2.248698,2.162761 -1.346354,0.6875 -3.294271,0.6875 -2.463541,0 -3.924479,-1.375 -1.446614,-1.389323 -1.446614,-3.7096357 0,-2.7070314 1.804687,-4.0820314 1.819011,-1.375 5.414063,-1.375 H 28.21875 V 3.8600264 q 0,-1.8190105 -1.203125,-2.8072917 -1.188802,-1.00260424 -3.351562,-1.00260424 -1.375,0 -2.678386,0.32942709 -1.303385,0.32942709 -2.50651,0.98828125 v -2.4348959 q 1.446614,-0.5585937 2.807291,-0.8307291 1.360678,-0.2864584 2.64974,-0.2864584 3.480469,0 5.199219,1.80468755 1.71875,1.80468755 1.71875,5.47135425 z" />
        <path
           id="path4628"
           style=""
           d="M 46.852867,0.63737006 V -8.0423176 h 2.635417 V 14.244141 h -2.635417 v -2.40625 q -0.830729,1.432292 -2.105468,2.134115 -1.260417,0.6875 -3.036459,0.6875 -2.907552,0 -4.740885,-2.320313 -1.819011,-2.320312 -1.819011,-6.1015624 0,-3.7812501 1.819011,-6.10156263 1.833333,-2.32031257 4.740885,-2.32031257 1.776042,0 3.036459,0.7018229 1.274739,0.68750006 2.105468,2.11979176 z M 37.872398,6.2376306 q 0,2.9075521 1.188803,4.5690104 1.203125,1.647136 3.29427,1.647136 2.091146,0 3.294271,-1.647136 1.203125,-1.6614583 1.203125,-4.5690104 0,-2.9075521 -1.203125,-4.5546876 -1.203125,-1.66145837 -3.294271,-1.66145837 -2.091145,0 -3.29427,1.66145837 -1.188803,1.6471355 -1.188803,4.5546876 z" />
      </g>
    </g>
  </g>
  <metadata
     id="metadata4961">
    <rdf:RDF>
      <cc:Work
         rdf:about="">
        <dc:format>image/svg+xml</dc:format>
        <dc:type
           rdf:resource="http://purl.org/dc/dcmitype/StillImage" />
        <dc:title></dc:title>
        <cc:license
           rdf:resource="" />
        <dc:date>Sat Dec 5 14:19:35 2015 -0200</dc:date>
        <dc:creator>
          <cc:Agent>
            <dc:title>[Yorik van Havre]</dc:title>
          </cc:Agent>
        </dc:creator>
        <dc:rights>
          <cc:Agent>
            <dc:title>FreeCAD LGPL2+</dc:title>
          </cc:Agent>
        </dc:rights>
        <dc:publisher>
          <cc:Agent>
            <dc:title>FreeCAD</dc:title>
          </cc:Agent>
        </dc:publisher>
        <dc:identifier>FreeCAD/src/Mod/Draft/Resources/icons/Draft_Mirror.svg</dc:identifier>
        <dc:relation>http://www.freecadweb.org/wiki/index.php?title=Artwork</dc:relation>
        <dc:contributor>
          <cc:Agent>
            <dc:title>[agryson] Alexander Gryson</dc:title>
          </cc:Agent>
        </dc:contributor>
        <dc:subject>
          <rdf:Bag>
            <rdf:li>mirror</rdf:li>
            <rdf:li>triangle</rdf:li>
            <rdf:li>dotted</rdf:li>
          </rdf:Bag>
        </dc:subject>
        <dc:description>A right angled triangle on the left, with a line in the middle and the mirrored form of the triangle on the right</dc:description>
      </cc:Work>
    </rdf:RDF>
  </metadata>
</svg>
